PARTICIPANTS: use this file for creating the class diagram in mastery task 01
@startuml
' Package com.amazon.ata.kindlepublishingservice.activity
package "com.amazon.ata.kindlepublishingservice.activity" {
    class GetBookActivity {
        - RecommendationsServiceClient recommendationServiceClient
        - CatalogDao catalogDao
        + GetBookActivity(CatalogDao, RecommendationsServiceClient)
        + execute(GetBookRequest): GetBookResponse
    }

    class GetPublishingStatusActivity {
        + GetPublishingStatusActivity()
        + execute(GetPublishingStatusRequest): GetPublishingStatusResponse
    }

    class RemoveBookFromCatalogActivity {
        - CatalogDao catalogDao
        + RemoveBookFromCatalogActivity(CatalogDao)
        + execute(RemoveBookFromCatalogRequest): RemoveBookFromCatalogResponse
    }

    class SubmitBookForPublishingActivity {
        - PublishingStatusDao publishingStatusDao
        + SubmitBookForPublishingActivity(PublishingStatusDao)
        + execute(SubmitBookForPublishingRequest): SubmitBookForPublishingResponse
    }
}

' Package com.amazon.ata.kindlepublishingservice.clients
package "com.amazon.ata.kindlepublishingservice.clients" {
    class RecommendationsServiceClient {
        - RecommendationsService recommendationsService
        + RecommendationsServiceClient(RecommendationsService)
        + getBookRecommendations(BookGenre): List<BookRecommendation>
    }
}

' Package com.amazon.ata.kindlepublishingservice.dao
package "com.amazon.ata.kindlepublishingservice.dao" {
    class CatalogDao {
        - dynamoDbMapper : DynamoDBMapper
        + CatalogDao(DynamoDBMapper)
        + getBookFromCatalog(String): CatalogItemVersion
        + save(CatalogItemVersion): void
    }

    class PublishingStatusDao {
        - dynamoDbMapper : DynamoDBMapper
        + PublishingStatusDao(DynamoDBMapper)
        + setPublishingStatus(String, PublishingRecordStatus, String): PublishingStatusItem
        + save(PublishingStatusItem): void
    }
}

' Package com.amazon.ata.kindlepublishingservice.dynamodb.models
package "com.amazon.ata.kindlepublishingservice.dynamodb.models" {
    class CatalogItemVersion {
        @DynamoDBHashKey bookId : String
        @DynamoDBRangeKey version : int
        inactive : boolean
        title : String
        author : String
        text : String
        genre : BookGenre
    }

    class PublishingStatusItem {
        @DynamoDBHashKey publishingRecordId : String
        @DynamoDBRangeKey status : PublishingRecordStatus
        statusMessage : String
        bookId : String
    }
}

' Package com.amazonaws.services.s3.model
package "com.amazonaws.services.s3.model" {
    class Metrics {
        + String status
        + ReplicationTimeValue eventThreshold
        + getStatus(): String
        + setStatus(String): void
        + withStatus(String): Metrics
        + getEventThreshold(): ReplicationTimeValue
        + setEventThreshold(ReplicationTimeValue): void
        + withEventThreshold(ReplicationTimeValue): Metrics
    }
}

' Package com.amazon.ata.kindlepublishingservice.exceptions
package "com.amazon.ata.kindlepublishingservice.exceptions" {
    class BookNotFoundException
    class PublishingStatusNotFoundException
}

' Relationships
GetBookActivity --> RecommendationsServiceClient
GetBookActivity --> CatalogDao
SubmitBookForPublishingActivity --> PublishingStatusDao
RemoveBookFromCatalogActivity --> CatalogDao
CatalogDao --> CatalogItemVersion
CatalogDao --> BookNotFoundException
PublishingStatusDao --> PublishingStatusItem
Metrics --> ReplicationTimeValue
@enduml

